<svg xmlns="http://www.w3.org/2000/svg" id="Layer_1" data-name="Layer 1" viewBox="0 0 1154.5 497"><defs><style>.cls-1{fill:#579bec}.cls-2{fill:#3b6be8}</style></defs><path d="M242.8 165.4h254.1V-.2H351.6L242.8 165.4z" class="cls-1"/><path d="M25.1 496.7h299.8L175 268.6 25.1 496.7zM324.9-.2H0v494.4L324.9-.2z" class="cls-2"/><path d="m242.8 331.1 108.8 165.6h145.3V331.1H242.8zM372.9 308.8l39.8-60.5-39.8-60.5H228.1l-39.8 60.5 39.8 60.5H372.9z" class="cls-1"/><path d="M572 0c37.2 0 52.7 18.9 52.7 54v19.2c0 26-9.1 42.2-29.4 48.6 21.6 6.4 29.7 24 29.7 49.3v36.8c0 10.4.4 20.2 4.8 28.3H603c-3-6.7-4.4-12.8-4.4-28.7v-37c0-26.7-12.5-35.2-34.4-35.2h-18.6v101h-26.3V0Zm-6.7 111.4c21 0 33.4-6.8 33.4-32.4V56.4C598.7 35 591 24 571.4 24h-25.7v87.4ZM642 57c0-36.1 17.8-59.4 54-59.4 36.4 0 54.2 23.3 54.2 59.4v122.2c0 35.8-17.8 59.4-54.3 59.4-36 0-54-23.6-54-59.4Zm26 123.5c0 21.6 9 34.1 28 34.1 19.2 0 28-12.5 28-34v-125c0-21.2-8.9-34-28-34-19 0-28 12.8-28 34ZM871 57v20.3h-25V55.7c0-21.3-8.4-34.1-27.6-34.1-19 0-27.7 12.8-27.7 34v125c0 21.2 8.8 34 27.7 34 19.2 0 27.7-12.8 27.7-34v-47.3h-24.4v-23.6H871v69.5c0 35.8-16.9 59.4-53.3 59.4-36.1 0-53-23.6-53-59.4V57c0-35.8 16.9-59.4 53-59.4C854.2-2.4 871 21.3 871 57ZM912.6 180.5c0 21.3 8.4 34.1 27.6 34.1 19 0 27.4-12.8 27.4-34V0h24.6v179.2c0 35.8-16.5 59.7-53 59.7-36.1 0-52.6-24-52.6-59.7V0h26ZM1093.8 104.6v23.6H1036v84h70.8v24h-97.2V0h97.2v24h-70.8v80.7Z" class="cls-2"/><path d="M603.5 365.4V389h-57.8v84h71v24h-97.3V260.7h97.2v24h-70.9v80.7ZM655.8 497H632V260.7h33.4l54.7 170.8V260.7h23.3V497H716l-60.4-191ZM866.3 317.8V338h-25v-21.6c0-21.2-8.4-34-27.6-34-19 0-27.7 12.8-27.7 34v124.9c0 21.2 8.8 34 27.7 34 19.2 0 27.6-12.8 27.6-34V394H817v-23.6h49.3V440c0 35.8-16.9 59.4-53.3 59.4-36.1 0-53-23.6-53-59.4V317.8c0-35.8 16.9-59.4 53-59.4 36.5 0 53.3 23.6 53.3 59.4ZM909.2 260.7V497h-26.3V260.7ZM951 497h-23.6V260.7h33.4l54.7 170.8V260.7h23.3V497h-27.4L951 306ZM1141.3 365.4V389h-57.7v84h71v24h-97.3V260.7h97.2v24h-70.9v80.7Z" class="cls-1"/></svg>